<svg width="237" height="143" viewBox="0 0 237 193" fill="none" xmlns="http://www.w3.org/2000/svg">
<path d="M20.4656 47.8936C17.5405 44.5924 6.90574 44.9704 3.92123 43.8737C1.53363 42.9964 1.64202 35.2439 1.99467 31.4773C8.57717 31.41 22.2112 32.327 24.0871 36.534M20.4656 47.8936C23.3907 51.1948 18.7034 48.9715 24.1138 57.917C24.3807 58.3583 24.6197 58.7747 24.833 59.1682M20.4656 47.8936C26.1729 45.8163 26.432 41.7926 24.0871 36.534M33.9359 84.9031C32.1334 84.686 26.5422 74.06 24.9988 69.8193C23.5314 65.7879 28.9439 66.7492 24.833 59.1682M33.9359 84.9031C35.378 85.0768 30.9334 90.0708 28.5308 92.5461C29.7064 94.5922 32.6945 98.5399 35.2418 97.962C36.6782 97.6361 48.0988 83.5489 59.7325 65.9089M33.9359 84.9031C40.2392 77.786 46.4164 68.0214 52.0376 57.6857M24.0871 36.534C24.4873 35.6606 26.4493 33.3165 31.0951 30.9271M31.0951 30.9271C36.9022 27.9403 25.5522 60.4193 24.833 59.1682M31.0951 30.9271C34.0454 29.5622 39.8183 27.6649 39.3066 30.9945M24.833 59.1682C33.6234 60.1013 38.6669 35.1565 39.3066 30.9945M39.3066 30.9945C38.918 26.77 47.0075 14.3337 49.3585 24.2797M49.3585 24.2797C53.3493 41.1638 27.5542 78.0577 26.5207 69.2654M49.3585 24.2797L53.0015 17.7147C56.4457 15.7335 63.4744 12.1566 64.0356 13.6986M64.0356 13.6986C64.7372 15.6262 68.8689 22.2426 67.9354 24.4132M64.0356 13.6986C59.3482 21.7351 50.3863 41.7836 52.0376 57.6857M67.9354 24.4132C73.1668 12.1745 76.5405 3.01561 77.0101 1.99102C77.9708 -0.104983 83.0987 2.53998 85.5427 4.12447C87.8577 15.2885 78.5086 35.3123 67.2504 54.0043M67.9354 24.4132C63.6783 34.3726 58.1911 46.3713 52.0376 57.6857M67.2504 54.0043C64.8013 58.0705 62.2618 62.0737 59.7325 65.9089M67.2504 54.0043C69.7692 57.2731 72.378 62.0363 71.1732 64.7821M59.7325 65.9089C67.0295 67.8221 70.2415 66.9053 71.1732 64.7821M71.1732 64.7821L72.3005 56.5321C100.87 70.9757 160.621 105.372 185.436 134.106M71.1732 64.7821C83.6257 59.9042 154.439 123.744 176.043 141.89M185.436 134.106C187.224 136.176 188.831 138.217 190.231 140.219C188.59 142.417 184.69 146.777 182.222 146.627C181.789 146.601 179.573 144.855 176.043 141.89M185.436 134.106C195.609 124.582 216.91 106.496 220.724 110.347M220.724 110.347C221.846 110.667 224.39 111.894 225.592 114.251C225.828 114.713 225.025 116.744 223.443 119.836M220.724 110.347C204.747 150.74 173.372 174.006 159.681 180.59C160.591 183.089 162.891 183.854 165.183 183.866M169.636 183.079C164.829 182.5 158.328 181.606 170.777 182.663C183.9 183.777 214.935 136.465 223.443 119.836M169.636 183.079L163.205 178.434C154.696 172.101 168.218 151.433 176.043 141.89M169.636 183.079C168.514 183.487 166.85 183.876 165.183 183.866M165.183 183.866C165.46 187.39 167.196 193.659 171.921 190.542C176.964 187.216 200.35 181.667 220.568 144.25M223.443 119.836C228.146 116.378 230.162 119.864 230.582 122.04C227.409 130.48 224.035 137.834 220.568 144.25M220.568 144.25C221.852 145.016 224.465 147.143 224.642 149.524C224.689 150.151 223.065 152.917 220.375 156.753M176.868 188.742C181.479 195.231 191.163 189.213 200.614 180.099M220.375 156.753C215.851 163.202 208.31 172.677 200.614 180.099M220.375 156.753C220.964 159.751 221.069 163.886 219.891 167.843M200.614 180.099C205.24 180.146 208.869 179.301 211.695 177.88M211.695 177.88C216.246 175.591 218.711 171.806 219.891 167.843M211.695 177.88C213.421 178.371 215.398 178.798 217.272 178.997M219.891 167.843C222.343 170.721 223.675 172.92 224.182 174.577M224.182 174.577C227.837 177.03 235.219 182.609 235.508 185.298C235.87 188.659 230.824 191.369 228.6 189.995C226.377 188.622 221.511 185.907 217.272 178.997M224.182 174.577C225.437 178.679 221.636 179.458 217.272 178.997" stroke="#2C6E98" stroke-width="2"/>
</svg>
