<svg viewBox="0 0 1440 894" fill="none" xmlns="http://www.w3.org/2000/svg" id="svghome">
    <path
        d="M63.0602 72.0767C96.2311 118.623 221.648 183.788 457.951 72.0767C694.254 -39.6345 680.67 77.9158 644.34 150.655C519.554 233.237 351.173 406.91 675.931 440.944C1081.88 483.486 715.947 656.158 675.931 748.75C635.916 841.342 979.207 1074.07 1202.45 874.375C1425.7 674.677 1262.48 440.944 1390.95 385.889C1493.72 341.845 1461.15 210.715 1432.02 150.655C1415.17 70.0747 1363.57 -63.1579 1291.96 48.5533C1202.45 188.192 908.654 102.107 923.396 36.0408C938.139 -30.0249 649.079 1.50646 781.235 95.6001C913.392 189.694 854.422 668.17 578.525 798.8C302.627 929.43 -31.1871 680.683 -41.191 582.084C-51.1949 483.486 87.2802 420.924 -4.86105 285.789C-97.0023 150.655 -194.409 83.5882 -226 141.646"
        stroke="#A8DADC" 
        />
</svg>