<svg width="92" height="104" viewBox="0 0 92 124" fill="none" xmlns="http://www.w3.org/2000/svg">
<path d="M76.4479 55.6444C66.4451 77.6006 45.8411 121.632 43.4467 122.106M76.4479 55.6444C59.2335 53.7151 31.7016 38.5031 20.0875 31.1383M76.4479 55.6444C78.4432 55.2494 82.5262 54.2469 82.8956 53.3974L86.3586 45.4331M43.4467 122.106C40.6041 122.668 16.8938 124.408 3.59942 105.231M43.4467 122.106C40.3608 105.612 8.83522 99.4801 3.59942 105.231M20.0875 31.1383C19.6352 30.6309 19.1135 29.8466 18.5812 28.9432C17.2537 26.6898 17.1716 18.972 18.2144 16.5735C18.5087 15.8969 18.8325 15.152 19.1887 14.3328M20.0875 31.1383C18.461 35.331 16.899 39.8561 15.4169 44.5394M48.3129 8.68776C33.1334 -0.437799 50.5081 2.0663 51.3141 1.78541C52.1201 1.50453 69.3732 9.00642 81.5638 15.5697C91.1925 20.7537 90.8355 32.755 89.4151 38.3193C89.3784 38.4631 89.3301 38.5991 89.2709 38.7351L86.3586 45.4331M48.3129 8.68776L63.2656 15.1894C63.6509 15.311 64.0504 15.4425 64.4618 15.5837M48.3129 8.68776L46.466 12.9354M62.5689 19.9371C67.9159 19.8178 75.3104 26.7224 80.1009 32.2013C81.5321 33.8382 84.2344 33.5002 84.0679 31.3321C83.5051 24.0089 71.9964 18.1704 64.4618 15.5837M62.5689 19.9371L64.4618 15.5837M62.5689 19.9371C58.791 22.3349 50.2595 16.2684 46.466 12.9354M46.466 12.9354C38.6818 10.3925 22.3285 7.11193 19.1887 14.3328M19.1887 14.3328C34.4652 37.3899 72.5437 48.8962 86.3586 45.4331M15.4169 44.5394C16.6591 46.0384 19.4198 49.0303 20.5246 49.0056M15.4169 44.5394C14.3998 47.7532 13.4203 51.0414 12.4835 54.3479M12.4835 54.3479C13.6639 55.4925 16.5311 57.8756 18.5561 58.251M12.4835 54.3479C11.5571 57.6175 10.6724 60.905 9.83412 64.1558M9.83412 64.1558C11.1531 65.8405 14.258 69.0795 16.1259 68.5583M9.83412 64.1558C9.00509 67.3709 8.22154 70.5502 7.48814 73.6411M7.48814 73.6411C8.4071 74.8825 10.6824 77.3028 12.4321 77.0535M7.48814 73.6411C6.78384 76.6093 6.12578 79.496 5.5181 82.2545M5.5181 82.2545C6.47674 83.0922 8.73909 84.9177 10.1193 85.5178M5.5181 82.2545C4.84774 85.2975 4.23869 88.1846 3.69649 90.8531M3.69649 90.8531C2.9042 94.7524 2.25468 98.1851 1.76522 100.956C1.64497 101.636 1.76358 102.339 2.11841 102.932C2.5956 103.73 3.08986 104.496 3.59942 105.231M3.69649 90.8531C4.60617 91.9064 6.70174 94.0069 7.8066 93.9822" stroke="#457B9D" stroke-width="2"/>
</svg>
