<svg width="100" height="100" viewBox="0 0 100 100" fill="none" xmlns="http://www.w3.org/2000/svg">
<circle cx="50" cy="50" r="50" fill="#E63946"/>
<path d="M73.8306 17.216L80.3586 32.96C80.0386 33.216 79.6866 33.44 79.3026 33.632C78.9186 33.824 78.5666 34.048 78.2466 34.304C75.6226 29.952 73.0306 26.752 70.4706 24.704C68.6146 23.232 66.6626 22.176 64.6146 21.536C62.6306 20.896 60.5506 20.576 58.3746 20.576H49.1586C48.1986 20.576 47.2066 20.64 46.1826 20.768C45.2226 20.832 44.4546 20.96 43.8786 21.152C42.3426 21.856 41.5746 23.456 41.5746 25.952V47.552H55.6866C58.8226 47.552 60.9666 46.88 62.1186 45.536C63.5906 43.872 64.3266 40.832 64.3266 36.416H67.1106V63.2H64.3266C64.3266 58.208 63.5906 54.88 62.1186 53.216C60.9026 51.808 58.7586 51.104 55.6866 51.104H41.5746V74.816C41.5746 77.44 42.0546 79.072 43.0146 79.712C44.0386 80.544 46.7266 80.96 51.0786 80.96V84.128H27.3666V81.056C30.8226 81.056 33.0626 80.64 34.0866 79.808C34.9826 79.04 35.4306 77.408 35.4306 74.912V25.952C35.4306 24.16 35.0466 22.88 34.2786 22.112C33.1266 20.96 30.8226 20.384 27.3666 20.384V17.216H73.8306Z" fill="white"/>
</svg>
